# xmcd
# 
# Track frame offsets:
#     150
#     14330
#     29191
#     44060
#     58351
#     74702
#     98084
#     112072
# 
# Disc length: 1711
# 
# Revision: 2
# Processed by: cddbd v1.5.2PL0 Copyright (c) Steve Scherf et al.
# Submitted via: fre:ac v1.0.17
# 
DISCID=8006ad08
DTITLE=Duke Robillard - Blue Mood  CD2
DYEAR=2004
DGENRE=Blues
TTITLE0=Left Handed
TTITLE1=I Miss My Baby In My Arms
TTITLE2=Someday Baby
TTITLE3=Jimmie's Texas Blues
TTITLE4=Big Bill's Blues
TTITLE5=Tale A Little Walk With Me
TTITLE6=What Is That Tastes Like Gravy
TTITLE7=You Ain't Nothin' But A Cheater
EXTD=
EXTT0=
EXTT1=
EXTT2=
EXTT3=
EXTT4=
EXTT5=
EXTT6=
EXTT7=
PLAYORDER=
